<svg width="2056" height="481" viewBox="0 0 2056 481" xmlns="http://www.w3.org/2000/svg"><title>Artboard</title><g fill="none" fill-rule="evenodd"><path d="M68.5 237.5c-6.7-1.6-13-3.3-18.9-5.2-.1 0-.2-.1-.3-.1 2.1 40 7.9 75.6 17.8 106.5.5.2 1 .3 1.5.5V237.5h-.1zM116.2 342.6v-97.4c-10.7-1.1-20.6-2.4-29.8-4v102.2c3.6.4 7.2.7 11 .7 6.6-.1 12.8-.6 18.8-1.5zM168.2 248.5c-12.2-.4-23.6-1-34.2-1.7v91.6c12.9-4.4 24.2-11.1 34.2-19.6v-70.3z" fill="#067CAB"/><path d="M128.8 364.5c-9.9 2.2-20.4 3.3-31.4 3.3-6.8 0-13.5-.6-20-1.7 26.3 58.9 71.8 97.3 142.2 114 107.7-18.9 161-112.2 167.5-250-1.4.5-2.8.9-4.2 1.4-32.2 10.2-75 15.6-136.4 17.1-15.4 28.9-30.8 55.8-51.3 77.2-18 18.8-38.2 31.2-61.2 37.3l-5.2 1.4z" fill="#067CAB"/><path d="M218 249h-9.6c-7.7 0-15.1-.1-22.3-.2v51.5c12.1-14.7 22.7-32.3 33.1-51.3H218z" fill="#067CAB"/><path d="M394.8 71.5c-3.2-2.7-6.6-5.4-10.2-7.9-33.5-23.7-81.3-38.2-134.6-41-8-.4-14.8-6.9-23.4-15.1-2.3-2.2-5.6-5.3-8.1-7.4-2.4 2-5.5 4.9-7.7 6.9-10.3 9.5-15.5 14-22.2 14.4-54.4 2.5-103.3 17.5-137.7 42.2C18.5 86.8.8 117.1 1 148.9c.2 29.2 17.9 48.5 55.9 60.8 33.1 10.7 81.2 15.6 151.5 15.6h9.5c4.8 0 9.6-.1 14.2-.1 34-64.4 72.2-136 162.7-153.7z" fill="#212F60"/><path d="M307.3 149.9v71.5c13.4-1.3 25.5-2.9 36.4-4.9v-99.1c-13.8 9.1-25.8 20.2-36.4 32.5zM361.6 212.7c4.9-1.2 9.6-2.5 14.1-3.9 7.7-2.4 14.3-5.1 20.1-7.9V95.7c-12.5 2.8-23.8 6.7-34.2 11.7v105.3zM289.5 222.9v-49.6c-11 16.2-20.7 33.6-30.1 51.1 10.6-.3 20.6-.9 30.1-1.5zM413.7 189.8c17.6-14.4 20.3-30.7 20.2-43.3-.1-19-6.7-37.4-19-54-.4 0-.8.1-1.2.1v97.2zM408.4 102.1c.4 0 .8-.1 1.2-.1-.4-.5-.8-1.1-1.2-1.6v1.7z" fill="#212F60"/><path d="M624.4 87.9c23.3 0 45 4.3 65.1 13 20.1 8.7 37.7 20.6 52.8 35.7 15.1 15.1 27 32.7 35.7 52.8 8.7 20.1 13 41.8 13 65.1v167.4H624.4c-22.8 0-44.4-4.3-64.7-13-20.3-8.7-38.2-20.7-53.6-36.1-15.4-15.4-27.4-33.2-36.1-53.6-8.7-20.3-13-41.9-13-64.7 0-23.3 4.3-45 13-65.1 8.7-20.1 20.7-37.7 36.1-52.8 15.4-15.1 33.2-27 53.6-35.7 20.3-8.6 41.9-13 64.7-13zm100.4 267.8V254.5c0-13.9-2.6-26.9-7.8-39.1-5.2-12.1-12.4-22.8-21.6-32-9.2-9.2-19.8-16.4-32-21.6-12.2-5.2-25.2-7.8-39.1-7.8-13.9 0-27 2.6-39.4 7.8-12.4 5.2-23.2 12.4-32.4 21.6-9.2 9.2-16.4 19.8-21.6 32-5.2 12.2-7.8 25.2-7.8 39.1 0 13.9 2.6 27 7.8 39.4 5.2 12.4 12.4 23.2 21.6 32.4 9.2 9.2 20 16.4 32.4 21.6 12.4 5.2 25.5 7.8 39.4 7.8h100.5z" fill="#007BAB"/><path d="M859.5 137c16.4-16.4 34.8-28.6 55.4-36.8 20.6-8.2 41.5-12.3 62.9-12.3 21.3 0 42.3 4.1 62.9 12.3 20.6 8.2 39.1 20.5 55.4 36.8l23.1 23.1-46.1 46.9-23.8-23.1c-9.9-9.9-21.1-17.4-33.5-22.3-12.4-5-25-7.4-37.9-7.4-12.9 0-25.5 2.5-37.9 7.4-12.4 5-23.6 12.4-33.5 22.3-9.9 9.4-17.4 20.3-22.3 32.7-5 12.4-7.4 25-7.4 37.9 0 12.9 2.5 25.5 7.4 37.9 5 12.4 12.4 23.6 22.3 33.5 19.8 19.8 43.6 29.8 71.4 29.8 13.4 0 26.3-2.5 38.7-7.4 12.4-5 23.3-12.4 32.7-22.3l23.8-23.1 46.1 46.9-23.1 23.1c-16.4 16.4-34.8 28.6-55.4 36.8-20.6 8.2-41.5 12.3-62.9 12.3-21.3 0-42.3-4.1-62.9-12.3-20.6-8.2-39.1-20.5-55.4-36.8-16.4-16.4-28.5-34.7-36.4-55-7.9-20.3-11.9-41.3-11.9-62.9s4-42.5 11.9-62.9c7.8-20.4 20-38.7 36.4-55.1zM1145.1 256c0-23.3 4.3-45 13-65.1 8.7-20.1 20.6-37.7 35.7-52.8 15.1-15.1 32.8-27 53.2-35.7 20.3-8.7 41.9-13 64.7-13 23.3 0 45 4.3 65.1 13 20.1 8.7 37.8 20.6 53.2 35.7 15.4 15.1 27.4 32.7 36.1 52.8 8.7 20.1 13 41.8 13 65.1 0 22.8-4.3 44.4-13 64.7-8.7 20.3-20.7 38.2-36.1 53.6-15.4 15.4-33.1 27.4-53.2 36.1-20.1 8.7-41.8 13-65.1 13-22.8 0-44.4-4.3-64.7-13-20.3-8.7-38.1-20.7-53.2-36.1-15.1-15.4-27-33.2-35.7-53.6-8.7-20.3-13-41.9-13-64.7zm65.4 0c0 13.9 2.6 27 7.8 39.4 5.2 12.4 12.4 23.2 21.6 32.4 9.2 9.2 20 16.4 32.4 21.6 12.4 5.2 25.5 7.8 39.4 7.8 13.9 0 27-2.6 39.4-7.8 12.4-5.2 23.2-12.4 32.4-21.6 9.2-9.2 16.4-20 21.6-32.4 5.2-12.4 7.8-25.5 7.8-39.4 0-13.9-2.6-26.9-7.8-39.1-5.2-12.1-12.4-22.8-21.6-32-9.2-9.2-20-16.4-32.4-21.6-12.4-5.2-25.5-7.8-39.4-7.8-13.9 0-27 2.6-39.4 7.8-12.4 5.2-23.2 12.4-32.4 21.6-9.2 9.2-16.4 19.8-21.6 32-5.1 12.2-7.8 25.2-7.8 39.1zM1702.2 87.9v66.2h-33.5c-13.9 0-26.9 2.6-39.1 7.8-12.2 5.2-22.8 12.4-32 21.6-9.2 9.2-16.4 19.8-21.6 32-5.2 12.2-7.8 25.2-7.8 39.1V422h-66.9V254.5c0-23.3 4.3-45 13-65.1 8.7-20.1 20.7-37.7 36.1-52.8 15.4-15.1 33.2-27 53.6-35.7 20.3-8.7 41.9-13 64.7-13h33.5zM1734.6 190.2c8.7-20.1 20.6-37.7 35.7-52.8 15.1-15.1 32.8-27 53.2-35.7 20.3-8.7 41.9-13 64.7-13 23.3 0 45 4.3 65.1 13 20.1 8.7 37.8 20.6 53.2 35.7 15.4 15.1 27.4 32.7 36.1 52.8 8.7 20.1 13 41.8 13 65.1v167.4h-66.2V255.3c0-13.9-2.6-26.9-7.8-39.1-5.2-12.1-12.4-22.8-21.6-32-9.2-9.2-20-16.4-32.4-21.6-12.4-5.2-25.5-7.8-39.4-7.8-13.9 0-26.9 2.6-39.1 7.8-12.2 5.2-22.8 12.4-32 21.6-9.2 9.2-16.4 19.8-21.6 32-5.2 12.2-7.8 25.2-7.8 39.1v167.4h-66.2V255.3c.1-23.3 4.4-45 13.1-65.1z" fill="#212F60"/></g></svg>