<?xml version="1.0" encoding="utf-8"?>
<!-- Generator: Adobe Illustrator 21.0.0, SVG Export Plug-In . SVG Version: 6.00 Build 0)  -->
<svg version="1.1" id="Layer_1" xmlns="http://www.w3.org/2000/svg" xmlns:xlink="http://www.w3.org/1999/xlink" x="0px" y="0px"
	 viewBox="0 0 1401 560" style="enable-background:new 0 0 1401 560;" xml:space="preserve">
<style type="text/css">
	.st0{fill:#00703A;}
	.st1{fill:url(#SVGID_1_);}
	.st2{fill:url(#SVGID_2_);}
	.st3{fill:#76D15A;stroke:#FFFFFF;stroke-width:14;stroke-miterlimit:10;}
	.st4{fill:#009245;}
	.st5{fill:#76D15A;}
	.st6{fill:url(#SVGID_3_);}
</style>
<g>
	<path class="st0" d="M259.9,75c5.2-4.7,10.4-8.7,15.5-12c5.1-3.3,10.1-5.9,14.7-7.7c4.6-1.9,7.8-3,11.2-3.6c1-0.2,4.4-0.9,4.7-1.1
		c-27.1,2.3-59.7,10.1-78.4,30.3c-4.7,5.1-9.1,10.9-10.6,17.7c-0.9,4.2,2.5,11.3,4.6,15c4.2-4.7,6.8-8.8,11.9-12.6
		c5-3.8,7.9-7.3,10.7-9.9c0.2-0.2,0.3-0.4,0.5-0.6C249.6,84.9,254.7,79.6,259.9,75z"/>
	<path class="st0" d="M277.5,66c-4.7,3.5-9.5,7.7-14.2,12.5c-2.6,2.7-5.3,5.5-7.8,8.5c0.1,0,0.1,0,0.2,0c-4.1,5-11.5,17.8-13.7,24
		c-1.6,4.6-2,9.5-2,14.4c4.2,1.4,8.7,2.2,13.1,2c10.3-0.4,20.6-6.2,25.1-15.7c5.7-12,6-20.6,7.6-33.8c1.1-9.3,10.2-18.8,17.7-25.4
		c-3.3,0.9-8.2,3.2-12.4,5.2C286.9,59.7,282.2,62.5,277.5,66z"/>
</g>
<path class="st0" d="M441.4,154.3c-13.4-12.1-34.8-18.2-63.6-18.2H297l-61.3,227h56.9l20.2-74.9h17.6c29.9,0,56.3-7,78.3-20.9
	c23.5-14.8,38.7-34.2,45-57.7C460.1,186.4,455.8,167.2,441.4,154.3z M395.2,210.7c-2.3,8.7-6.9,14.6-14.6,19.3
	c-9.3,5.5-22.4,8.4-38.9,8.4h-15.4l14.2-52.5h19C401.9,185.9,397.2,203.3,395.2,210.7z"/>
<linearGradient id="SVGID_1_" gradientUnits="userSpaceOnUse" x1="136.2018" y1="128.8" x2="136.2018" y2="366.8" gradientTransform="matrix(1 0 0 -1 0 562)">
	<stop  offset="0" style="stop-color:#009245"/>
	<stop  offset="0.2888" style="stop-color:#76D15A"/>
</linearGradient>
<path class="st1" d="M167.6,212.7c-11.6,13.1-20.7,27-29.8,41.2c-8.9,14.3-17.3,29.1-24.8,44.7c-7.4,15.6-14.1,32.1-18.7,50
	c-2.3,9-4,16.4-5.1,26.3c-1.1,9.3-1,22.9,3.1,34.4l62.3,23.9C123,416,141.7,344.6,145.2,330c0.6-2.5,38.6-134.8,38.6-134.8
	C177.6,201.5,173.5,206,167.6,212.7z"/>
<linearGradient id="SVGID_2_" gradientUnits="userSpaceOnUse" x1="357.3542" y1="376.5385" x2="412.7043" y2="495.2373" gradientTransform="matrix(1 0 0 -1 0 562)">
	<stop  offset="0" style="stop-color:#009245"/>
	<stop  offset="0.1551" style="stop-color:#76D15A"/>
</linearGradient>
<path class="st2" d="M503,121.3c-3.4-6.6-8.8-13-15.9-18.3s-15.9-9.4-25.5-12.3c-19.4-5.6-42.2-7-66.6-5.1
	c-12.2,1-24.9,2.7-37.8,5.5c-6.5,1.4-13,3-19.7,5c-3.3,1-6.6,2.1-10,3.5c-3.2,1.3-6.4,2.6-9.7,4c-12.9,5.5-26.1,11.8-39,19
	c-6.5,3.6-12.9,7.5-19.2,11.5c5.3,2.1,9.5,4.7,11.3,8.8c0.4,0.9,0.9,1.9,1.4,2.9c4.8-3.6,9.6-7,14.5-10.3
	c14.9-10,27.3-16.9,35.9-21.3c1.6-0.8,3.1-1.5,4.6-2.3l2.3-1.1l1.2-0.6c0.2-0.1,0.7-0.3,1-0.5c2.9-1.3,6-2.5,9-3.6
	c6.1-2.2,12.4-4.1,18.5-5.7c12.4-3.2,24.6-5.5,36.4-6.8c23.6-2.7,45.7-2.2,64.2,2.8c9.2,2.5,17.4,6.1,24,10.8
	c6.6,4.7,11.5,7.9,14.7,13.8c1.1,2.1,2.3,4.4,3.5,6.9h3.8C505.1,125.8,504.2,123.6,503,121.3z"/>
<polygon class="st0" points="542.5,363.1 485.5,363.1 533.3,185.9 463.6,185.9 477,136.1 673.7,136.1 660.2,185.9 590.3,185.9 "/>
<path class="st3" d="M204.4,150.6"/>
<path class="st0" d="M204.2,151.3L146.6,363h58.5l57.2-210.1c4.5-16.5-35.4-16.8-32.5-27.2c2.1-7.5,7.6-16.5,11.7-21.8
	c-13.7,11.6-29.9,28.8-36.5,44.6L204.2,151.3z"/>
<path class="st4" d="M473.1,426.9c-4.9,2.5-8.7,4.3-10.8,5.4c-4.5-5.6-23.9-27-32-38.6C442.3,380,450.9,375,473.1,426.9z"/>
<path class="st4" d="M316.9,367c0,0,21.6,1,34.7,1c2,0,7.7-6.1,9.7-11.1c-16.9-1.3-28.2-1.2-45.1-0.8C316,359.6,316.9,367,316.9,367
	z"/>
<path class="st5" d="M95.4,413.4c8.3,11,27.5,35.9,38.2,44.5c8.3,6.7,12.8,9.7,20.6,16.9c3.9,3.6,15.8,9.4,19.1,13.5
	c16,6.4,33,6.5,41.3,7.3c24.5,2.3,42.5,1.1,69.6-6.3c13.6-3.7,26.2-7.6,39.5-13.6c6.6-3,108.2-71.1,122.8-107l-76.4-26.2
	c-26.9,57-139.1,88.6-196.5,82c-25.1-2.9-48.6-11-64-17.3l-1.2-0.7c-23.5-11.8-19.7-27.3-17.6-43.8c-2.5,11.9-3.5,22.6-2.4,32.9
	c0.3,2.7,3.2,14.8,5.9,15.7L95.4,413.4z"/>
<g>
	
		<linearGradient id="SVGID_3_" gradientUnits="userSpaceOnUse" x1="192.4469" y1="45.8336" x2="424.0114" y2="321.8014" gradientTransform="matrix(1 0 0 -1 0 562)">
		<stop  offset="0" style="stop-color:#009245"/>
		<stop  offset="0.3797" style="stop-color:#76D15A"/>
	</linearGradient>
	<path class="st6" d="M91.5,408.8c2.4,6.2,8.2,17.7,12.5,23.5c8.3,11,16.1,32.8,64.8,54.8c38.3,17.3,95.2,15.8,122.3,8.3
		c12.6-3.4,118-31.4,151.8-102.5l30,33.1l-21-162.4l-135.7,92.5l59.4,1.1c-30.4,54-144.2,82.6-200.2,77.5
		c-29.2-2.6-53.2-11.1-67.9-17.7l0,0c-6.8-4.1-14.9-6.6-19.1-20.9C88.7,400.5,90.2,405.6,91.5,408.8z"/>
</g>
</svg>
